HIERARCHY
ROOT Hips
{
	OFFSET 0.000000 97.167313 0.000000
	CHANNELS 6 Xposition Yposition Zposition Xrotation Yrotation Zrotation
	JOINT Spine
	{
		OFFSET 0.000000 13.784798 0.064400
		CHANNELS 3 Xrotation Yrotation Zrotation
		JOINT Spine1
		{
			OFFSET 0.000000 12.037903 0.404700
			CHANNELS 3 Xrotation Yrotation Zrotation
			JOINT Spine2
			{
				OFFSET 0.000000 17.795601 0.420200
				CHANNELS 3 Xrotation Yrotation Zrotation
				JOINT Neck
				{
					OFFSET 0.000000 39.131302 11.954600
					CHANNELS 3 Xrotation Yrotation Zrotation
					JOINT Head
					{
						OFFSET 0.000000 14.456192 15.627699
						CHANNELS 3 Xrotation Yrotation Zrotation
						JOINT HeadTop_End
						{
							OFFSET 0.000000 15.703506 7.603401
							CHANNELS 3 Xrotation Yrotation Zrotation
							End Site
							{
								OFFSET 0.000000 17.447403 0.000000
							}
						}
					}
				}
				JOINT LeftShoulder
				{
					OFFSET 17.399500 24.608795 1.168800
					CHANNELS 3 Xrotation Yrotation Zrotation
					JOINT LeftArm
					{
						OFFSET 18.980635 5.765305 1.818600
						CHANNELS 3 Xrotation Yrotation Zrotation
						JOINT LeftForeArm
						{
							OFFSET 49.290169 0.000000 0.000000
							CHANNELS 3 Xrotation Yrotation Zrotation
							JOINT LeftHand
							{
								OFFSET 31.562012 0.000000 0.000000
								CHANNELS 3 Xrotation Yrotation Zrotation
								JOINT LeftHandThumb1
								{
									OFFSET 6.133995 -4.388519 7.076070
									CHANNELS 3 Xrotation Yrotation Zrotation
									JOINT LeftHandThumb2
									{
										OFFSET 6.037666 -3.485840 3.485847
										CHANNELS 3 Xrotation Yrotation Zrotation
										JOINT LeftHandThumb3
										{
											OFFSET 6.496506 -3.750763 3.750761
											CHANNELS 3 Xrotation Yrotation Zrotation
											JOINT LeftHandThumb4
											{
												OFFSET 5.616882 -3.242905 3.242910
												CHANNELS 3 Xrotation Yrotation Zrotation
												End Site
												{
													OFFSET -1.254608 7.132141 0.375429
												}
											}
										}
									}
								}
								JOINT LeftHandPinky1
								{
									OFFSET 18.920792 -0.453171 -11.426712
									CHANNELS 3 Xrotation Yrotation Zrotation
									JOINT LeftHandPinky2
									{
										OFFSET 4.919586 0.000000 0.000000
										CHANNELS 3 Xrotation Yrotation Zrotation
										JOINT LeftHandPinky3
										{
											OFFSET 5.233047 0.000000 0.000000
											CHANNELS 3 Xrotation Yrotation Zrotation
											JOINT LeftHandPinky4
											{
												OFFSET 5.571716 0.000000 0.000000
												CHANNELS 3 Xrotation Yrotation Zrotation
												End Site
												{
													OFFSET -3.459808 4.342407 -0.466164
												}
											}
										}
									}
								}
								JOINT LeftHandRing1
								{
									OFFSET 22.726120 -0.094986 -6.500475
									CHANNELS 3 Xrotation Yrotation Zrotation
									JOINT LeftHandRing2
									{
										OFFSET 6.408615 0.000000 0.000000
										CHANNELS 3 Xrotation Yrotation Zrotation
										JOINT LeftHandRing3
										{
											OFFSET 6.150223 0.000000 0.000000
											CHANNELS 3 Xrotation Yrotation Zrotation
											JOINT LeftHandRing4
											{
												OFFSET 6.145386 0.000000 0.000000
												CHANNELS 3 Xrotation Yrotation Zrotation
												End Site
												{
													OFFSET -3.671402 4.923981 -0.202372
												}
											}
										}
									}
								}
								JOINT LeftHandMiddle1
								{
									OFFSET 23.373947 0.000000 0.000001
									CHANNELS 3 Xrotation Yrotation Zrotation
									JOINT LeftHandMiddle2
									{
										OFFSET 6.996567 0.000000 0.000000
										CHANNELS 3 Xrotation Yrotation Zrotation
										JOINT LeftHandMiddle3
										{
											OFFSET 7.015945 0.000000 0.000000
											CHANNELS 3 Xrotation Yrotation Zrotation
											JOINT LeftHandMiddle4
											{
												OFFSET 7.721573 0.000000 0.000000
												CHANNELS 3 Xrotation Yrotation Zrotation
												End Site
												{
													OFFSET -4.651108 6.158463 0.251582
												}
											}
										}
									}
								}
								JOINT LeftHandIndex1
								{
									OFFSET 21.310577 -0.490082 6.209344
									CHANNELS 3 Xrotation Yrotation Zrotation
									JOINT LeftHandIndex2
									{
										OFFSET 7.536453 0.000000 0.000000
										CHANNELS 3 Xrotation Yrotation Zrotation
										JOINT LeftHandIndex3
										{
											OFFSET 7.512344 0.000000 0.000000
											CHANNELS 3 Xrotation Yrotation Zrotation
											JOINT LeftHandIndex4
											{
												OFFSET 10.212402 0.000000 0.000001
												CHANNELS 3 Xrotation Yrotation Zrotation
												End Site
												{
													OFFSET -5.180801 8.690506 1.388433
												}
											}
										}
									}
								}
							}
						}
					}
				}
				JOINT RightShoulder
				{
					OFFSET -17.399500 24.608795 1.168800
					CHANNELS 3 Xrotation Yrotation Zrotation
					JOINT RightArm
					{
						OFFSET -18.980635 5.765305 1.818600
						CHANNELS 3 Xrotation Yrotation Zrotation
						JOINT RightForeArm
						{
							OFFSET -49.290169 0.000000 0.000000
							CHANNELS 3 Xrotation Yrotation Zrotation
							JOINT RightHand
							{
								OFFSET -31.562012 0.000000 0.000000
								CHANNELS 3 Xrotation Yrotation Zrotation
								JOINT RightHandThumb1
								{
									OFFSET -6.133995 -4.388519 7.076070
									CHANNELS 3 Xrotation Yrotation Zrotation
									JOINT RightHandThumb2
									{
										OFFSET -6.037666 -3.485840 3.485847
										CHANNELS 3 Xrotation Yrotation Zrotation
										JOINT RightHandThumb3
										{
											OFFSET -6.496506 -3.750763 3.750761
											CHANNELS 3 Xrotation Yrotation Zrotation
											JOINT RightHandThumb4
											{
												OFFSET -5.616882 -3.242905 3.242910
												CHANNELS 3 Xrotation Yrotation Zrotation
												End Site
												{
													OFFSET 1.254608 7.132141 0.375429
												}
											}
										}
									}
								}
								JOINT RightHandIndex1
								{
									OFFSET -21.310577 -0.490082 6.209344
									CHANNELS 3 Xrotation Yrotation Zrotation
									JOINT RightHandIndex2
									{
										OFFSET -7.536453 0.000000 0.000000
										CHANNELS 3 Xrotation Yrotation Zrotation
										JOINT RightHandIndex3
										{
											OFFSET -7.512344 0.000000 0.000000
											CHANNELS 3 Xrotation Yrotation Zrotation
											JOINT RightHandIndex4
											{
												OFFSET -10.212402 0.000000 0.000001
												CHANNELS 3 Xrotation Yrotation Zrotation
												End Site
												{
													OFFSET 5.180801 8.690506 1.388433
												}
											}
										}
									}
								}
								JOINT RightHandMiddle1
								{
									OFFSET -23.373947 0.000000 0.000001
									CHANNELS 3 Xrotation Yrotation Zrotation
									JOINT RightHandMiddle2
									{
										OFFSET -6.996567 0.000000 0.000000
										CHANNELS 3 Xrotation Yrotation Zrotation
										JOINT RightHandMiddle3
										{
											OFFSET -7.015945 0.000000 0.000000
											CHANNELS 3 Xrotation Yrotation Zrotation
											JOINT RightHandMiddle4
											{
												OFFSET -7.721573 0.000000 0.000000
												CHANNELS 3 Xrotation Yrotation Zrotation
												End Site
												{
													OFFSET 4.651108 6.158463 0.251582
												}
											}
										}
									}
								}
								JOINT RightHandRing1
								{
									OFFSET -22.726120 -0.094986 -6.500475
									CHANNELS 3 Xrotation Yrotation Zrotation
									JOINT RightHandRing2
									{
										OFFSET -6.408615 0.000000 0.000000
										CHANNELS 3 Xrotation Yrotation Zrotation
										JOINT RightHandRing3
										{
											OFFSET -6.150223 0.000000 0.000000
											CHANNELS 3 Xrotation Yrotation Zrotation
											JOINT RightHandRing4
											{
												OFFSET -6.145386 0.000000 0.000000
												CHANNELS 3 Xrotation Yrotation Zrotation
												End Site
												{
													OFFSET 3.671402 4.923981 -0.202372
												}
											}
										}
									}
								}
								JOINT RightHandPinky1
								{
									OFFSET -18.920792 -0.453171 -11.426712
									CHANNELS 3 Xrotation Yrotation Zrotation
									JOINT RightHandPinky2
									{
										OFFSET -4.919586 0.000000 0.000000
										CHANNELS 3 Xrotation Yrotation Zrotation
										JOINT RightHandPinky3
										{
											OFFSET -5.233047 0.000000 0.000000
											CHANNELS 3 Xrotation Yrotation Zrotation
											JOINT RightHandPinky4
											{
												OFFSET -5.571716 0.000000 0.000000
												CHANNELS 3 Xrotation Yrotation Zrotation
												End Site
												{
													OFFSET 3.459808 4.342407 -0.466164
												}
											}
										}
									}
								}
							}
						}
					}
				}
			}
		}
	}
	JOINT LeftUpLeg
	{
		OFFSET 19.899099 -7.885101 -3.429500
		CHANNELS 3 Xrotation Yrotation Zrotation
		JOINT LeftLeg
		{
			OFFSET 1.745560 -36.997807 10.304700
			CHANNELS 3 Xrotation Yrotation Zrotation
			JOINT LeftFoot
			{
				OFFSET -1.745558 -29.803308 -13.615400
				CHANNELS 3 Xrotation Yrotation Zrotation
				JOINT LeftToeBase
				{
					OFFSET 1.181900 -18.539904 15.226099
					CHANNELS 3 Xrotation Yrotation Zrotation
					JOINT LeftToe_End
					{
						OFFSET -0.863701 1.402801 16.534700
						CHANNELS 3 Xrotation Yrotation Zrotation
						End Site
						{
							OFFSET 0.000000 16.616566 0.000000
						}
					}
				}
			}
		}
	}
	JOINT RightUpLeg
	{
		OFFSET -19.899099 -7.885101 -3.429500
		CHANNELS 3 Xrotation Yrotation Zrotation
		JOINT RightLeg
		{
			OFFSET -1.745560 -36.997807 10.304700
			CHANNELS 3 Xrotation Yrotation Zrotation
			JOINT RightFoot
			{
				OFFSET 1.745558 -29.803308 -13.615400
				CHANNELS 3 Xrotation Yrotation Zrotation
				JOINT RightToeBase
				{
					OFFSET -1.181900 -18.539904 15.226099
					CHANNELS 3 Xrotation Yrotation Zrotation
					JOINT RightToe_End
					{
						OFFSET 0.863701 1.402801 16.534700
						CHANNELS 3 Xrotation Yrotation Zrotation
						End Site
						{
							OFFSET 0.000000 16.616566 0.000000
						}
					}
				}
			}
		}
	}
}
MOTION
Frames: 6
Frame Time: 0.033333
3.500624 88.729782 3.396453 -1.137911 4.711412 -2.663624 4.177162 -0.072215 -4.007870 -3.669567 -0.147481 3.724836 -3.652461 -0.183555 3.736619 6.411090 -2.853664 -1.324905 4.940512 -2.695610 0.676355 -0.000000 0.000000 0.000000 0.562996 -4.351483 -5.516716 1.511005 7.647460 -68.158478 20.147870 -10.905517 0.248844 -0.143325 0.803539 5.025715 10.557736 -2.873381 25.085757 -5.466202 26.113109 -7.056470 -6.642513 3.830193 -2.616348 0.000001 -0.000002 -0.000003 -6.466540 11.338256 -26.083654 8.739396 2.610178 -31.923399 5.266236 2.636496 -14.783823 0.000001 0.000004 -0.000005 -4.974212 10.113950 -16.315546 4.013424 4.057055 -38.804128 2.100436 3.141594 -21.138585 0.000001 -0.000000 0.000007 -1.979469 5.671802 -18.668124 0.265330 5.070961 -32.022884 -0.654056 1.123377 -16.743556 0.000000 -0.000001 0.000008 2.382684 3.631792 -10.146188 -2.139894 2.444218 -20.341017 -1.874956 4.848930 -16.123000 -0.000002 0.000001 0.000001 0.547557 0.252856 8.210488 -2.840489 0.971325 67.700528 22.458391 17.065877 -6.961625 0.036819 -5.224918 1.034690 15.578120 -0.726481 -16.763212 -6.586372 -24.373329 7.033377 -11.550786 5.745681 5.164537 0.000002 -0.000003 -0.000002 2.247948 -2.298816 4.747578 -2.147141 -2.454133 14.947985 -1.892724 -4.853531 10.730099 -0.000002 0.000000 -0.000001 -1.992220 -5.682323 8.742427 0.270224 -5.094752 22.099844 -0.653209 -1.139768 6.820023 -0.000000 -0.000000 -0.000009 -4.984340 -10.118312 7.760553 4.018651 -4.046366 30.252182 2.103034 -3.154433 12.586362 -0.000004 0.000002 -0.000007 -6.470302 -11.329788 16.980334 10.714903 -2.554539 28.536757 6.430038 -3.074586 8.993767 0.000001 0.000003 0.000003 -46.989738 -14.201385 -6.942647 68.230086 -0.823319 0.831319 30.908450 -0.272572 5.107511 -20.892370 9.064442 -7.160503 -0.000000 -0.000000 -0.000000 -11.823306 -8.154753 15.806180 34.362555 -3.284829 -1.352075 5.657432 1.503467 -13.862829 -28.088625 1.714855 -1.755531 0.000000 -0.000000 -0.000000 
3.635690 90.055252 6.916913 -1.162525 1.004825 -0.561456 4.236994 1.045806 -4.010901 -3.644741 1.043719 2.824676 -3.692018 0.969353 2.779525 6.807822 -2.111379 -2.926799 4.651383 -2.498020 1.597870 -0.000000 0.000000 0.000000 0.519834 -3.021355 -6.617497 3.016946 8.946499 -67.273955 21.198887 -10.483750 0.549622 -0.120449 1.047510 3.637402 10.549482 -2.598690 25.148476 -5.480649 26.086033 -7.055182 -6.653121 3.803164 -2.625863 0.000001 -0.000002 -0.000001 -6.467927 11.337738 -26.034569 8.741505 2.626860 -32.353455 5.265775 2.643797 -15.213480 0.000002 0.000002 -0.000002 -4.973995 10.112757 -16.260037 4.013252 4.054103 -39.227289 2.102882 3.143514 -21.561960 -0.000000 0.000001 0.000005 -1.979925 5.670775 -18.604242 0.265525 5.072706 -32.437924 -0.653398 1.125465 -17.158518 -0.000000 0.000001 0.000001 2.382382 3.635185 -10.313332 -2.139659 2.447558 -20.508015 -1.873532 4.849938 -16.290189 0.000000 0.000001 0.000002 0.542175 2.075367 5.823317 -4.499690 0.584039 70.313867 23.954851 19.389973 -8.339274 0.026472 -4.979287 0.895384 15.573936 -0.714498 -16.763965 -6.588717 -24.363949 7.037063 -11.554886 5.754297 5.168418 -0.000001 0.000000 -0.000000 2.247949 -2.298818 4.747581 -2.140588 -2.459103 14.592037 -1.884612 -4.856575 10.374656 0.000000 -0.000001 -0.000001 -1.992222 -5.682322 8.742429 0.279029 -5.098618 22.057065 -0.647857 -1.145257 6.776565 -0.000003 0.000000 -0.000001 -4.984341 -10.118310 7.760554 4.028200 -4.049183 30.209169 2.108851 -3.159344 12.543108 0.000002 0.000001 -0.000003 -6.470301 -11.329785 16.980327 10.724306 -2.557583 28.493364 6.435364 -3.079861 8.950293 0.000000 0.000003 0.000006 -45.856319 -13.156076 -5.809372 58.778880 3.567116 0.460583 32.588868 -0.870517 2.824739 -21.087975 9.267177 -7.033631 -0.000001 -0.000000 0.000000 -8.418251 -6.906260 13.637987 32.608474 -0.539919 -1.335099 4.545708 1.672802 -14.650925 -27.964196 1.397602 -1.126768 -0.000000 -0.000000 -0.000000 
3.594459 91.700020 10.082607 -0.323265 -3.181447 1.049525 3.580307 2.402374 -2.260469 -3.447482 2.324793 1.353361 -3.511615 2.239453 1.257650 6.316959 -1.117251 -4.712639 5.184777 -2.126446 2.546138 -0.000000 0.000000 -0.000000 0.504445 -0.972005 -8.351943 3.792717 10.165508 -65.661136 22.877329 -9.865932 0.962826 -0.085589 2.006157 1.623318 10.526044 -1.865477 25.316163 -5.521318 26.018503 -7.052872 -6.685003 3.733496 -2.640737 0.000000 -0.000001 -0.000001 -6.471469 11.336377 -25.908069 8.743426 2.666904 -33.500698 5.257295 2.662730 -16.360350 0.000003 0.000001 0.000003 -4.973404 10.109687 -16.117039 4.012755 4.054475 -40.357812 2.109369 3.143500 -22.692812 -0.000000 0.000001 -0.000000 -1.981041 5.668127 -18.439805 0.266036 5.076886 -33.547417 -0.650890 1.125840 -18.267978 0.000001 -0.000001 0.000008 2.381165 3.639361 -10.765199 -2.139284 2.451416 -20.959694 -1.873692 4.852040 -16.742097 -0.000003 0.000001 0.000001 0.603607 4.275714 4.010797 -5.978233 1.977366 71.901866 20.348430 22.119984 -7.937591 4.292135 -4.865103 1.644603 15.567176 -0.681478 -16.755007 -6.602776 -24.337984 7.036403 -11.567901 5.779493 5.177866 -0.000001 0.000000 0.000003 2.247947 -2.298813 4.747581 -2.115867 -2.478593 13.649311 -1.862073 -4.871113 9.433033 -0.000001 -0.000001 -0.000002 -1.992222 -5.682322 8.742422 0.304945 -5.114735 21.931801 -0.627171 -1.167570 6.649416 -0.000001 0.000000 -0.000004 -4.984343 -10.118312 7.760550 4.056175 -4.061452 30.083565 2.131715 -3.179439 12.416763 -0.000000 -0.000002 -0.000005 -6.470305 -11.329790 16.980327 10.751807 -2.570726 28.366998 6.456950 -3.101388 8.823881 -0.000001 -0.000000 0.000002 -42.955586 -10.052319 -4.510251 45.683935 5.667150 0.433784 35.132376 -1.323074 0.337389 -21.224700 9.726090 -6.182972 -0.000000 0.000000 -0.000000 -5.623774 -7.315953 11.560466 29.390133 3.973729 -1.436262 5.171088 1.888171 -15.936363 -27.651498 1.088838 -0.253022 0.000000 0.000000 0.000000 
3.430878 93.211700 13.067669 0.106248 -6.636838 1.885838 3.933069 3.536318 0.147727 -3.467856 3.291453 -0.017409 -3.470165 3.207647 -0.162946 5.555930 -0.242819 -6.488538 5.706791 -1.873984 3.361909 -0.000001 0.000000 -0.000000 0.535899 1.628134 -10.553296 4.149093 11.294975 -63.550115 22.201682 -9.336965 0.679976 -0.132578 2.607361 2.637938 10.488540 -0.810321 25.557914 -5.580209 25.928675 -7.051100 -6.729118 3.638863 -2.661078 -0.000001 -0.000002 -0.000001 -6.476301 11.334490 -25.735849 8.747635 2.724526 -35.152515 5.245797 2.693605 -18.011793 -0.000001 0.000000 -0.000002 -4.972590 10.105492 -15.922407 4.012753 4.054995 -41.986874 2.109429 3.144118 -24.321837 -0.000000 -0.000001 -0.000000 -1.982584 5.666304 -18.215865 0.266724 5.081850 -35.147641 -0.646524 1.126456 -19.868382 -0.000000 -0.000001 0.000006 2.378912 3.639868 -11.427376 -2.138871 2.451343 -21.621995 -1.873883 4.854916 -17.404234 -0.000001 0.000003 0.000002 0.727192 5.806492 2.907139 -6.893858 6.060191 72.257439 19.676762 24.423650 -8.410382 3.638874 -4.303223 1.203427 15.556234 -0.627910 -16.740437 -6.627219 -24.296970 7.035896 -11.590325 5.820327 5.190738 -0.000002 -0.000001 0.000002 2.247944 -2.298811 4.747577 -2.079954 -2.511741 12.307578 -1.828245 -4.906771 8.092563 0.000000 -0.000005 -0.000002 -1.992224 -5.682322 8.742429 0.346837 -5.141050 21.728811 -0.593892 -1.203910 6.443341 -0.000000 0.000000 -0.000001 -4.984346 -10.118311 7.760557 4.101351 -4.081611 29.880001 2.168609 -3.212220 12.212053 -0.000002 0.000000 0.000002 -6.470302 -11.329785 16.980330 10.796301 -2.592183 28.162301 6.491658 -3.136455 8.619035 0.000003 -0.000002 0.000007 -38.572834 -5.538340 -3.726106 30.510346 4.281599 0.521494 38.550377 -1.838116 -2.155654 -21.304489 10.398248 -4.742023 -0.000001 0.000000 -0.000000 -2.207768 -8.170530 10.609971 25.487244 9.501522 -1.540630 6.398647 0.487198 -16.930198 -27.849693 0.712106 -0.106224 -0.000000 0.000001 0.000000 
3.226452 94.364189 15.994432 0.216837 -9.149523 2.251459 4.716804 4.402778 2.322812 -3.542134 3.878616 -1.001338 -3.447136 3.795211 -1.195901 4.860467 0.448183 -8.284704 5.837016 -1.803624 4.028558 -0.000000 0.000000 0.000000 0.717922 4.122619 -12.654122 4.341356 12.460302 -61.771213 21.452178 -8.977246 0.392069 -0.241750 2.830192 5.277904 10.438704 0.430401 25.843090 -5.643908 25.831492 -7.049250 -6.776918 3.536468 -2.683082 -0.000000 0.000002 0.000003 -6.481539 11.332459 -25.549501 8.754708 2.792115 -37.095936 5.233412 2.734506 -19.954975 0.000000 0.000000 -0.000002 -4.971797 10.104298 -15.711455 4.014433 4.055618 -43.905699 2.109524 3.144846 -26.240607 -0.000001 -0.000001 0.000005 -1.984244 5.664217 -17.973450 0.267513 5.085920 -37.035345 -0.640390 1.127242 -21.756149 0.000000 0.000000 0.000001 2.376374 3.640458 -12.225477 -2.138188 2.451277 -22.420275 -1.874078 4.857997 -18.202360 -0.000003 0.000003 0.000001 0.819608 6.764274 1.822599 -7.619072 10.267480 72.232454 25.214765 26.021202 -11.671736 -2.997512 -4.093447 0.102844 15.547433 -0.553119 -16.723221 -6.662331 -24.242337 7.036054 -11.620636 5.875838 5.208633 -0.000001 -0.000003 0.000004 2.247948 -2.298814 4.747578 -2.033086 -2.559081 10.754754 -1.784433 -4.957370 6.541336 0.000002 -0.000001 0.000001 -1.992222 -5.682322 8.742429 0.403513 -5.177337 21.452774 -0.549044 -1.253715 6.163231 -0.000001 0.000001 -0.000008 -4.984345 -10.118311 7.760555 4.162562 -4.109533 29.603344 2.218339 -3.257208 11.933763 -0.000002 -0.000002 -0.000003 -6.470308 -11.329786 16.980330 10.856553 -2.621944 27.883964 6.538471 -3.184581 8.340516 0.000000 0.000002 0.000001 -34.144105 0.743503 -4.026245 14.999114 0.932263 0.590666 43.783295 -2.053427 -2.378430 -21.329772 11.240640 -2.844265 -0.000001 -0.000000 0.000000 1.640577 -8.393540 9.806442 21.376076 12.598954 -1.271128 7.229999 0.260337 -17.272304 -28.049748 0.455011 -0.035703 0.000000 0.000000 -0.000000 
3.169764 95.010811 18.821297 0.065176 -10.892022 2.270881 5.647495 4.990068 4.434032 -3.571652 4.187162 -1.864331 -3.367241 4.092254 -2.099791 4.236181 1.091968 -9.572657 5.658104 -1.645266 4.540219 0.000001 0.000000 0.000000 0.912729 5.817572 -14.511726 4.676586 13.733994 -60.371093 21.934864 -8.951672 0.629172 -0.338168 3.763706 6.438776 10.380323 1.720250 26.140934 -5.701638 25.743437 -7.047685 -6.820437 3.443727 -2.703028 -0.000003 0.000002 -0.000002 -6.485892 11.330611 -25.380624 8.764467 2.862125 -39.117965 5.222001 2.777486 -21.976719 0.000002 -0.000002 -0.000001 -4.970991 10.101898 -15.520396 4.017861 4.055377 -45.905599 2.109598 3.145608 -28.240215 -0.000001 -0.000001 0.000005 -1.985710 5.661887 -17.753846 0.268217 5.088157 -39.006852 -0.632803 1.128209 -23.727778 0.000001 0.000000 0.000001 2.373891 3.641027 -13.085072 -2.137164 2.451175 -23.280141 -1.874258 4.860899 -19.061922 -0.000000 0.000003 0.000002 0.926963 7.716864 0.779133 -8.801695 12.763690 72.264781 21.824951 28.792878 -10.917480 -0.024131 -3.996672 -0.005362 15.536336 -0.459849 -16.701691 -6.705968 -24.174065 7.036209 -11.658589 5.945059 5.230808 0.000003 0.000002 0.000005 2.247950 -2.298819 4.747584 -1.976316 -2.620686 9.178558 -1.732434 -5.022954 4.967165 -0.000000 0.000003 0.000004 -1.992221 -5.682324 8.742431 0.473677 -5.223374 21.108522 -0.493734 -1.316475 5.813846 -0.000001 0.000003 -0.000004 -4.984342 -10.118312 7.760555 4.238555 -4.145148 29.258174 2.279791 -3.314037 11.586690 0.000002 -0.000002 -0.000000 -6.470303 -11.329786 16.980330 10.931288 -2.659893 27.536751 6.596264 -3.245228 7.993180 0.000000 0.000001 0.000004 -30.634126 4.398761 -4.070524 2.726429 0.974052 0.188560 48.920735 -2.684079 -3.919660 -21.303597 12.210247 -0.623425 -0.000000 0.000000 -0.000001 5.614112 -9.568571 9.041986 17.952835 15.528015 -0.905655 7.238539 0.232431 -17.355849 -28.083142 0.208248 -0.021947 0.000000 -0.000000 -0.000000 
